<?xml version="1.0" encoding="UTF-8"?>
<svg xmlns="http://www.w3.org/2000/svg" xmlns:xlink="http://www.w3.org/1999/xlink" viewBox="0 0 169 150" version="1.1">
<path style=" stroke:none;fill-rule:nonzero;fill:rgb(0%,0%,0%);fill-opacity:1;" d="M 81.128906 2.628906 C 71.027344 10.21875 61.714844 20.972656 52.609375 35.535156 C 43.296875 50.390625 40.695312 62.785156 43.851562 77.023438 C 45.308594 83.589844 48.199219 89.976562 53.105469 97.390625 C 56.636719 102.722656 63.816406 111.804688 64.167969 111.367188 C 64.226562 111.277344 66.210938 109.050781 68.546875 106.382812 C 78.648438 94.867188 79.84375 93.402344 79.640625 93.082031 C 79.523438 92.90625 78.5 91.351562 77.363281 89.683594 C 70.503906 79.484375 66.679688 70.550781 66.679688 64.777344 C 66.679688 62.050781 67.464844 59.472656 69.394531 55.695312 C 72.195312 50.183594 77.011719 43.5625 82.035156 38.199219 L 84.777344 35.328125 L 85.566406 36.0625 C 86.878906 37.292969 90.617188 41.835938 93.59375 45.878906 C 99.34375 53.671875 101.972656 58.59375 102.644531 62.902344 C 103.257812 66.769531 101.765625 72.191406 97.914062 79.808594 C 96.046875 83.53125 92.015625 89.945312 90.234375 92.054688 C 89.59375 92.847656 89.535156 93.050781 89.855469 93.519531 C 90.0625 93.8125 93.59375 97.945312 97.679688 102.691406 L 105.125 111.367188 L 106.671875 109.695312 C 108.628906 107.554688 112.65625 102.253906 115.546875 98.035156 C 121.414062 89.449219 124.566406 82.328125 125.996094 74.300781 C 128.769531 59.0625 124.683594 45.671875 111.488281 26.773438 C 105.648438 18.421875 100.21875 12.210938 94.207031 6.996094 C 90.617188 3.890625 85.507812 0.0234375 84.953125 0.0234375 C 84.75 0.0234375 83.027344 1.195312 81.128906 2.628906 Z M 81.128906 2.628906 "/>
<path style=" stroke:none;fill-rule:nonzero;fill:rgb(0%,0%,0%);fill-opacity:1;" d="M 35.648438 56.339844 C 15.941406 79.339844 4.265625 98.707031 1.082031 113.710938 C 0.121094 118.308594 -0.230469 123.789062 0.148438 128.828125 L 0.46875 133.195312 L 3.039062 135.683594 C 8.996094 141.488281 17.808594 146.027344 27.0625 148.109375 C 36.785156 150.277344 52.695312 150.597656 62.796875 148.871094 C 70.941406 147.464844 76.984375 144.796875 82.9375 139.992188 L 85.273438 138.085938 L 86.296875 138.9375 C 92.367188 144.007812 99.226562 147.140625 107.636719 148.695312 C 117.824219 150.570312 130.84375 150.363281 141.554688 148.109375 C 150.519531 146.203125 158.808594 142.042969 165.699219 135.917969 C 168.996094 132.988281 168.9375 133.164062 168.996094 125.578125 C 169.027344 117.988281 167.917969 112.246094 164.9375 104.683594 C 160.53125 93.492188 150.402344 77.582031 138.316406 62.871094 C 134.460938 58.183594 129.996094 53.085938 129.851562 53.203125 C 129.792969 53.261719 129.9375 54.289062 130.199219 55.519531 C 132.242188 65.449219 131.105469 76.789062 127.164062 85.464844 C 126.699219 86.546875 126.289062 87.542969 126.289062 87.71875 C 126.289062 87.867188 127.308594 89.390625 128.566406 91.117188 C 133.121094 97.332031 136.332031 102.488281 139.222656 108.289062 C 141.089844 112.011719 142.929688 116.40625 142.929688 117.078125 C 142.929688 118.015625 135.484375 120.859375 129.792969 122.089844 C 120.945312 124.050781 113.589844 122.910156 106.992188 118.632812 C 103.605469 116.433594 101.59375 114.414062 93.15625 104.65625 C 89.449219 100.40625 86.089844 96.511719 85.625 96.011719 L 84.835938 95.101562 L 83.726562 96.304688 C 83.140625 96.980469 79.347656 101.199219 75.320312 105.679688 C 71.289062 110.191406 67.144531 114.648438 66.125 115.585938 C 63.847656 117.636719 60.402344 119.832031 57.425781 121.0625 C 49.71875 124.285156 39.558594 123.640625 28.875 119.246094 C 25.34375 117.78125 25.253906 117.695312 25.429688 116.960938 C 25.808594 115.320312 28.933594 108.40625 30.886719 104.773438 C 33.136719 100.582031 38.683594 92.054688 41.078125 89.125 L 42.59375 87.25 L 41.921875 85.464844 C 39.296875 78.429688 38.363281 73.273438 38.332031 66.09375 C 38.332031 60.820312 38.710938 57.363281 39.734375 53.230469 C 39.996094 52.292969 40.140625 51.445312 40.082031 51.386719 C 40.027344 51.328125 38.011719 53.554688 35.648438 56.339844 Z M 35.648438 56.339844 "/>
</svg>