<svg xmlns="http://www.w3.org/2000/svg" width="1000" height="1351" viewBox="0 0 1000 1347" class="size-10 translate-x-[-0.5px]"><path d="M207.313 831.547c-14.786-7.64-32.801-1.695-40.45 13.25L55.891 1064.574c-7.48 14.946-1.703 33.29 13.086 40.93 14.953 7.644 32.968 1.7 40.617-13.246l110.972-219.946c7.477-14.949 1.7-33.289-13.254-40.765ZM95.828 774.313c-14.789-7.645-32.973-1.7-40.45 13.246l-48.773 96.3c-7.48 14.946-1.53 33.29 13.254 40.934 14.786 7.473 32.97 1.527 40.45-13.25l48.601-96.469c7.649-14.945 1.703-33.289-13.082-40.761m575.777 295.355c14.786 7.645 20.563 25.984 13.086 40.934l-110.976 219.773c-7.645 14.945-25.66 20.89-40.445 13.25-14.786-7.473-20.735-25.816-13.258-40.762l110.976-219.949c7.649-14.773 25.66-20.719 40.617-13.246m111.485 57.238c14.785 7.64 20.734 25.985 13.258 40.93l-48.778 96.3c-7.476 14.946-25.66 20.891-40.445 13.419-14.785-7.645-20.734-25.985-13.258-40.934l48.778-96.3c7.476-14.946 25.66-20.891 40.445-13.415m0 0" style="stroke:none;fill-rule:nonzero;fill:#012466;fill-opacity:1"/><path d="m589.52 243.215 44.699 56.898-180.996 358.535-58.29-30.062Zm0 0" style="stroke:none;fill-rule:nonzero;fill:#ffd800;fill-opacity:1"/><path d="m904.094 173.918 27.191 177.824-85.144-3.566-44.868-77.957a29.99 29.99 0 0 0-29.058-14.946l-89.055 9.34-52.851-67.258 158.73-82.542Zm0 0" style="stroke:none;fill-rule:nonzero;fill:#fff;fill-opacity:1"/><path d="m689.281 324.91 69.676-7.305 33.14 57.579-183.37 363.293-101.801-52.313Zm153.461 83.903 75.625 3.226-194.59 385.371-61.347-31.422ZM168.734 678.012c-.172-2.547.168-9.004 6.457-13.418l206.825-144.196-110.293 218.754-94.832-48.742c-6.797-3.398-7.989-9.851-8.157-12.398m0 0" style="stroke:none;fill-rule:nonzero;fill:#ffd800;fill-opacity:1"/><path d="M367.57 682.766 696.586 851.59l-42.484 83.902-81.575-41.949L407 808.449l-81.746-41.781Zm0 0" style="stroke:none;fill-rule:nonzero;fill:#fff;fill-opacity:1"/><path d="m496.73 1083.426-16.996-17.836c-10.195-10.7-26.511-12.567-38.746-4.074l-88.37 60.972-3.063-107.847c-.168-11.383-6.797-21.23-16.313-26.157a32.1 32.1 0 0 0-9.687-3.058l-24.301-3.399 100.605-109.039 125.082 64.203Zm0 0" style="stroke:none;fill-rule:nonzero;fill:#ff5d22;fill-opacity:1"/><path d="M817.418 1010.902c-2.207 1.36-7.984 4.246-14.953.68l-94.66-48.574L818.27 744.25l6.117 253.406c.172 7.813-4.93 11.887-6.969 13.246m0 0" style="stroke:none;fill-rule:nonzero;fill:#ffd800;fill-opacity:1"/><path d="m884.547 996.297-8.836-365.84L993.312 397.43c.172-.168.172-.34.172-.508.34-.508.508-1.02.68-1.527.508-1.192 1.02-2.38 1.36-3.567.171-.68.171-1.191.34-1.871.34-1.36.511-2.715.679-4.074v-1.02c.172-.172 0-.34 0-.511.172-1.696 0-3.567-.168-5.434l-.172-.168L945.56 46.535c-2.72-17.32-13.594-32.61-29.23-40.59-15.466-7.984-34.161-7.984-49.626.168L570.488 160.16l-.34.172a39 39 0 0 0-4.418 2.887c-.171.168-.343.168-.343.34-.34.168-.508.507-.848.68a23 23 0 0 0-2.89 2.886c-.34.508-.848.848-1.188 1.36-.852 1.019-1.531 2.038-2.04 3.226-.339.508-.679.848-1.019 1.36 0 .167-.172.34-.172.507l-117.6 233.024-298.6 208.058c-22.094 15.285-34.16 40.594-32.289 67.426 1.7 26.836 16.996 50.273 40.957 62.504l121.512 62.332 72.906 37.363L215.47 983.727c-7.649 8.324-10.028 20.21-6.29 30.914 3.91 10.699 13.258 18.34 24.305 19.87l56.762 7.641 3.738 137.743c.34 11.21 6.63 21.23 16.485 26.156 9.855 5.094 21.582 4.418 30.59-1.867l112.843-78.13 39.43 41.782c7.816 8.152 19.543 11.379 30.25 8.152 10.875-3.226 18.863-12.226 21.074-23.27l36.2-186.823 72.906 37.363 121.511 62.332c23.793 12.23 51.493 11.043 74.098-3.395 22.602-14.265 35.856-39.066 35.176-65.898ZM589.52 243.215l44.699 56.898-180.996 358.535-58.29-30.062Zm314.574-69.297 27.191 177.824-85.144-3.566-44.868-77.957a29.99 29.99 0 0 0-29.058-14.946l-89.055 9.34-52.851-67.258 158.73-82.542ZM689.28 324.91l69.676-7.305 33.14 57.579-183.37 363.293-101.801-52.313Zm153.461 83.902 75.625 3.227-194.59 385.371-61.347-31.422Zm-674.008 269.2c-.172-2.547.168-9.004 6.457-13.418l206.825-144.196-110.293 218.754-94.832-48.742c-6.797-3.398-7.989-9.851-8.157-12.398m198.836 4.754L696.586 851.59l-42.484 83.902-81.575-41.949L407 808.449l-81.746-41.781Zm129.16 400.66-16.996-17.836c-10.195-10.7-26.511-12.567-38.746-4.074l-88.37 60.972-3.063-107.847c-.168-11.383-6.797-21.23-16.313-26.157a32.1 32.1 0 0 0-9.687-3.058l-24.301-3.399 100.605-109.039 125.082 64.203Zm320.688-72.524c-2.207 1.36-7.984 4.246-14.953.68l-94.66-48.574L818.27 744.25l6.117 253.406c.172 7.813-4.93 11.887-6.969 13.246Zm0 0" style="stroke:none;fill-rule:nonzero;fill:#012466;fill-opacity:1"/></svg>